<?xml version="1.0" encoding="UTF-8"?>
<svg xmlns="http://www.w3.org/2000/svg" xmlns:xlink="http://www.w3.org/1999/xlink" width="700px" height="700px" viewBox="0 0 700 700" version="1.1">
<g id="surface1">
<path style=" stroke:none;fill-rule:nonzero;fill:#ffff00;fill-opacity:1;" d="M 219.449219 199.5 C 142.800781 213.152344 93.097656 268.097656 105.347656 325.152344 C 111.652344 355.949219 120.75 365.050781 199.5 425.949219 L 243.25 459.550781 L 244.300781 437.847656 L 245.347656 416.5 L 262.5 416.5 C 286.300781 416.5 290.5 414.050781 290.5 400.75 C 290.5 364.347656 321.300781 321.300781 361.199219 301 C 373.097656 295.402344 384.652344 290.5 387.097656 290.5 C 395.5 290.5 396.199219 283.152344 388.5 268.449219 C 367.847656 228.199219 320.597656 201.949219 261.800781 198.097656 C 247.800781 197.050781 228.550781 197.75 219.449219 199.5 Z M 279.652344 253.402344 C 293.300781 267.050781 291.902344 285.25 275.800781 298.902344 C 269.152344 304.847656 262.5 313.25 261.097656 317.449219 C 259.347656 323.402344 255.847656 325.5 248.152344 325.5 C 239.050781 325.5 238 324.449219 238 314.652344 C 238 306.597656 241.152344 300.652344 250.597656 292.25 C 265.300781 278.597656 265.652344 268.449219 251.300781 266.699219 C 246.050781 266 238.347656 267.402344 234.5 269.5 C 228.199219 272.652344 225.75 272.300781 220.152344 267.402344 C 210.699219 258.652344 211.75 255.847656 228.550781 248.152344 C 247.449219 239.402344 267.402344 241.152344 279.652344 253.402344 Z M 262.5 351.75 C 262.5 363.652344 262.152344 364 248.5 364 C 234.847656 364 234.5 363.652344 234.5 351.75 C 234.5 339.847656 234.847656 339.5 248.5 339.5 C 262.152344 339.5 262.5 339.847656 262.5 351.75 Z M 262.5 351.75 "/>
<path style=" stroke:none;fill-rule:nonzero;fill:#ffff00;fill-opacity:1;" d="M 399 296.800781 C 359.097656 307.300781 323.75 333.199219 309.75 362.25 C 278.949219 427 333.199219 495.949219 425.25 508.550781 L 455 512.402344 L 455 530.949219 C 455 541.097656 456.050781 549.5 457.097656 549.5 C 458.152344 549.5 476 536.550781 496.300781 520.449219 C 516.949219 504.347656 541.800781 485.800781 551.597656 478.449219 C 581.699219 456.75 595 432.597656 595 399.347656 C 595 324.097656 495.25 271.597656 399 296.800781 Z M 400.402344 381.152344 C 409.152344 390.597656 406.347656 406.347656 395.152344 412.652344 C 386.75 417.199219 385 417.199219 376.597656 411.949219 C 360.152344 401.097656 367.152344 374.5 386.402344 374.5 C 390.949219 374.5 397.25 377.652344 400.402344 381.152344 Z M 462.699219 380.449219 C 471.097656 387.800781 470.75 400.75 462 409.5 C 453.25 418.25 447.652344 418.25 436.097656 409.152344 C 425.25 400.75 424.550781 390.949219 434 381.5 C 442.402344 373.097656 453.949219 372.402344 462.699219 380.449219 Z M 525 381.5 C 528.847656 385.347656 532 390.949219 532 393.75 C 532 400.75 516.25 416.5 509.25 416.5 C 501.550781 416.5 490 403.550781 490 394.800781 C 490 376.597656 511.699219 368.199219 525 381.5 Z M 525 381.5 "/>
</g>
</svg>
