<?xml version="1.0" encoding="UTF-8"?>
<svg version="1.1" xmlns="http://www.w3.org/2000/svg" width="500" height="500">
<path d="M0 0 C1.19189941 0.00676758 2.38379883 0.01353516 3.61181641 0.02050781 C27.55863671 0.30204254 49.04400885 7.34769413 68.875 20.75 C69.65246582 21.27134521 70.42993164 21.79269043 71.23095703 22.32983398 C75.88111305 25.58857692 79.59857708 29.10015612 83.21582031 33.47827148 C84.80198769 35.44317098 84.80198769 35.44317098 87.25 37.8125 C108.12752479 58.69002479 118.84685689 88.57327668 118.9375 117.75 C118.92413124 149.62646156 106.75032814 178.38313293 84.6875 201.25 C84.03007812 201.97058594 83.37265625 202.69117188 82.6953125 203.43359375 C64.14006179 223.22320663 35.01826958 234.97992644 8.27416992 236.37597656 C-24.35506867 237.39857295 -55.81012319 227.52488801 -80.3125 205.25 C-81.66890445 203.60205506 -83.00517147 201.93714187 -84.3125 200.25 C-85.055 199.528125 -85.7975 198.80625 -86.5625 198.0625 C-96.6455851 187.75025387 -103.90215361 175.57653743 -109.3125 162.25 C-109.93125 160.8578125 -109.93125 160.8578125 -110.5625 159.4375 C-111.3125 157.25 -111.3125 157.25 -111.3125 153.25 C-111.9725 152.92 -112.6325 152.59 -113.3125 152.25 C-114.12890625 149.44140625 -114.12890625 149.44140625 -114.875 145.8125 C-115.12378906 144.63816406 -115.37257812 143.46382812 -115.62890625 142.25390625 C-117.12942607 134.07010232 -117.50738469 125.86806035 -117.5 117.5625 C-117.49919434 116.60931885 -117.49838867 115.6561377 -117.49755859 114.67407227 C-117.41446183 104.99492865 -117.06391971 95.28009724 -113.3125 86.25 C-112.96740879 84.75716099 -112.65352337 83.25667879 -112.375 81.75 C-111.5832203 78.0120633 -110.36889468 75.49277622 -108.3125 72.25 C-107.66735714 70.65382758 -107.04468342 69.04849472 -106.4375 67.4375 C-104.80807989 63.21237577 -102.80904863 59.5822763 -100.265625 55.84375 C-99.14141405 54.27342353 -99.14141405 54.27342353 -99.3125 52.25 C-98.202431 51.139931 -97.08736974 50.03457363 -95.953125 48.94921875 C-92.05715342 44.91410532 -87.82988268 40.28476535 -85.3125 35.25 C-84.3225 35.25 -83.3325 35.25 -82.3125 35.25 C-82.085625 34.486875 -81.85875 33.72375 -81.625 32.9375 C-79.97023601 29.54917374 -78.60452697 29.0711213 -75.3125 27.25 C-73.96733848 26.20251514 -72.63547398 25.13787151 -71.3125 24.0625 C-57.21598654 13.01828945 -41.71722839 6.12162816 -24.3125 2.25 C-23.5083667 2.07049805 -22.7042334 1.89099609 -21.87573242 1.70605469 C-14.55004899 0.20778577 -7.46308229 -0.06116416 0 0 Z M-75.47265625 51.56640625 C-90.7906915 69.43744738 -99.65173156 91.7208976 -100.3125 115.25 C-100.35246094 116.10980469 -100.39242187 116.96960938 -100.43359375 117.85546875 C-101.0815285 141.21923361 -91.83246839 164.24760016 -77.3125 182.25 C-76.48492187 183.30574219 -76.48492187 183.30574219 -75.640625 184.3828125 C-59.0283189 204.55489848 -33.43989591 216.19799656 -7.83984375 218.96484375 C-6.67582031 219.05894531 -5.51179688 219.15304687 -4.3125 219.25 C-3.28253906 219.33378906 -2.25257813 219.41757812 -1.19140625 219.50390625 C15.66593251 220.16961007 35.39862304 215.36611793 49.6875 206.25 C50.57566406 205.7034375 51.46382812 205.156875 52.37890625 204.59375 C76.37773432 189.18225769 92.39598387 166.78869934 99.6875 139.25 C105.12401318 113.66742059 100.14910493 87.67799523 86.765625 65.40625 C83.69977331 60.74984368 80.31282503 56.47827382 76.6875 52.25 C76.20925781 51.63898438 75.73101562 51.02796875 75.23828125 50.3984375 C60.95495894 32.47266337 36.40068361 20.57449776 13.9453125 17.78515625 C10.52284757 17.51651115 7.11868989 17.34864671 3.6875 17.25 C2.924375 17.21003906 2.16125 17.17007813 1.375 17.12890625 C-27.91205151 16.18595194 -56.14039386 29.99272213 -75.47265625 51.56640625 Z " fill="#ffff00" transform="translate(249.3125,131.75)"/>
<path d="M0 0 C1.060979 0.45270264 2.12195801 0.90540527 3.21508789 1.37182617 C8.42682058 3.63976264 13.62674318 5.93298869 18.8203125 8.2421875 C26.98365993 11.8626021 35.15731816 15.35367963 43.51953125 18.48828125 C51.80559569 22.13848219 51.80559569 22.13848219 53.66030884 26.53930664 C54.53661877 29.91567631 54.77431889 32.78223772 54.79833984 36.265625 C54.81109955 37.52713379 54.82385925 38.78864258 54.83700562 40.08837891 C54.84006289 41.45214686 54.84229086 42.8159169 54.84375 44.1796875 C54.85018431 45.59163546 54.85691314 47.00358211 54.86392212 48.41552734 C54.87586331 51.36754447 54.87960602 54.31944482 54.87841797 57.27148438 C54.87821449 61.04432615 54.90555915 64.81641709 54.93996239 68.58908081 C54.96225041 71.50255746 54.96625501 74.41585358 54.96519852 77.32940674 C54.96754998 78.72001747 54.97634792 80.11063351 54.99186325 81.50115967 C55.11520499 93.69230574 55.11520499 93.69230574 52.85644531 97.51293945 C50.17831693 100.12620256 47.92473125 101.41672498 44.46875 102.84765625 C43.26041504 103.35917236 42.05208008 103.87068848 40.80712891 104.39770508 C39.49927737 104.92982377 38.19116582 105.46130378 36.8828125 105.9921875 C35.53890009 106.55141737 34.1956447 107.11222858 32.85302734 107.67456055 C30.0998585 108.82572565 27.34301117 109.96744818 24.58398438 111.10449219 C20.7049468 112.71144319 16.86181894 114.39242928 13.0234375 116.09375 C11.86021973 116.60397705 10.69700195 117.1142041 9.49853516 117.63989258 C7.30667792 118.60195033 5.11861582 119.57271652 2.93505859 120.5534668 C-3.85495721 123.48744462 -9.10545782 125.29906372 -16.28076172 122.85473633 C-19.64586433 121.5088526 -22.94158877 120.05172428 -26.2421875 118.5546875 C-27.4628339 118.0122601 -28.68411934 117.47126869 -29.90600586 116.93164062 C-31.81075073 116.09009654 -33.71486806 115.24734527 -35.61656189 114.39892578 C-40.2003774 112.35708391 -44.81394537 110.39839507 -49.44921875 108.4765625 C-50.73674535 107.93934734 -52.02418161 107.4019156 -53.31152344 106.86425781 C-55.76812162 105.83832949 -58.22854318 104.82411571 -60.69238281 103.81542969 C-62.35865723 103.11401855 -62.35865723 103.11401855 -64.05859375 102.3984375 C-65.03771729 101.99302734 -66.01684082 101.58761719 -67.02563477 101.16992188 C-69.83727138 99.61368393 -70.86817505 98.56601977 -72.4921875 95.8046875 C-72.88659668 92.74453735 -72.88659668 92.74453735 -72.91210938 89.11181641 C-72.92057892 88.44787369 -72.92904846 87.78393097 -72.93777466 87.09986877 C-72.96112838 84.91013302 -72.96216718 82.72110075 -72.9609375 80.53125 C-72.96804092 79.00434082 -72.97574018 77.47743432 -72.98400879 75.95053101 C-72.99745039 72.75112489 -72.99902427 69.5519655 -72.99316406 66.35253906 C-72.98727288 62.26111178 -73.01783511 58.17087317 -73.05828094 54.07967567 C-73.08418836 50.92597118 -73.08703259 47.77255158 -73.08338928 44.61875534 C-73.0850782 43.11091503 -73.09469893 41.60306125 -73.11253357 40.09532547 C-73.2520251 26.84305402 -73.2520251 26.84305402 -70.3190918 23.01171875 C-67.47458319 20.7909434 -65.00977027 19.30385397 -61.66796875 17.953125 C-60.55615234 17.49421875 -59.44433594 17.0353125 -58.29882812 16.5625 C-57.14576172 16.10617188 -55.99269531 15.64984375 -54.8046875 15.1796875 C-53.67095703 14.715625 -52.53722656 14.2515625 -51.36914062 13.7734375 C-48.08367692 12.43274107 -44.78866856 11.11800636 -41.4921875 9.8046875 C-40.01177979 9.19802246 -40.01177979 9.19802246 -38.50146484 8.57910156 C-37.60508301 8.21268555 -36.70870117 7.84626953 -35.78515625 7.46875 C-35.00035889 7.14600098 -34.21556152 6.82325195 -33.40698242 6.49072266 C-31.4921875 5.8046875 -31.4921875 5.8046875 -29.4921875 5.8046875 C-29.1621875 5.1446875 -28.8321875 4.4846875 -28.4921875 3.8046875 C-26.50235937 3.10824765 -24.49923993 2.4498115 -22.4921875 1.8046875 C-21.0304192 1.10347023 -19.57228325 0.39464804 -18.1171875 -0.3203125 C-11.26149261 -3.34320625 -6.73053761 -2.88159312 0 0 Z M-17.76171875 18.55078125 C-18.78322273 18.98572655 -18.78322273 18.98572655 -19.82536316 19.42945862 C-21.99065413 20.35476277 -24.14752394 21.29811291 -26.3046875 22.2421875 C-27.77487179 22.87425506 -29.24557012 23.50512837 -30.71679688 24.13476562 C-34.31469671 25.67763243 -37.90515669 27.23672672 -41.4921875 28.8046875 C-40.00580271 31.77745707 -37.96180307 31.88911893 -34.8671875 32.9921875 C-28.92133861 35.19313709 -23.22246775 37.71548471 -17.51904297 40.48120117 C-12.21953423 43.33546431 -12.21953423 43.33546431 -6.51953125 43.18994141 C-5.82988281 42.84882324 -5.14023438 42.50770508 -4.4296875 42.15625 C-1.00016269 40.52160354 2.43532378 38.97107712 5.9453125 37.515625 C6.85925781 37.13148437 7.77320313 36.74734375 8.71484375 36.3515625 C10.60618761 35.55799165 12.4994847 34.76906275 14.39453125 33.984375 C15.29816406 33.6028125 16.20179687 33.22125 17.1328125 32.828125 C17.95007813 32.48700684 18.76734375 32.14588867 19.609375 31.79443359 C21.67869928 30.95155482 21.67869928 30.95155482 22.5078125 28.8046875 C18.61442583 27.10774635 14.718307 25.41728923 10.81958008 23.73266602 C9.4949256 23.15922602 8.17102053 22.58405151 6.84790039 22.00708008 C4.94093253 21.17587446 3.031316 20.35103796 1.12109375 19.52734375 C-0.02576904 19.02984619 -1.17263184 18.53234863 -2.35424805 18.01977539 C-8.56364626 15.61534258 -11.68743543 15.85465832 -17.76171875 18.55078125 Z M-55.4921875 43.8046875 C-55.4921875 57.9946875 -55.4921875 72.1846875 -55.4921875 86.8046875 C-53.8421875 86.8046875 -52.1921875 86.8046875 -50.4921875 86.8046875 C-50.4921875 87.4646875 -50.4921875 88.1246875 -50.4921875 88.8046875 C-49.86054687 89.01222656 -49.22890625 89.21976563 -48.578125 89.43359375 C-41.62469808 91.82821772 -35.30969853 94.84181002 -28.8515625 98.31640625 C-25.33929216 99.87242369 -22.27499676 100.30125393 -18.4921875 100.8046875 C-18.1621875 101.4646875 -17.8321875 102.1246875 -17.4921875 102.8046875 C-17.4921875 88.2846875 -17.4921875 73.7646875 -17.4921875 58.8046875 C-25.48107062 55.17337699 -33.41728456 51.73657438 -41.5546875 48.4921875 C-43.24368164 47.8105957 -43.24368164 47.8105957 -44.96679688 47.11523438 C-46.03865234 46.68662109 -47.11050781 46.25800781 -48.21484375 45.81640625 C-49.18172119 45.42928467 -50.14859863 45.04216309 -51.14477539 44.64331055 C-53.39063775 43.69254435 -53.39063775 43.69254435 -55.4921875 43.8046875 Z M29.05859375 45.54296875 C28.40835739 45.82440231 27.75812103 46.10583588 27.08818054 46.39579773 C25.70659328 46.99433634 24.32540473 47.59379594 22.94458008 48.1940918 C20.84763791 49.10531331 18.74912439 50.01283574 16.65039062 50.91992188 C15.30719453 51.50238021 13.96409263 52.08505584 12.62109375 52.66796875 C11.99898514 52.93684402 11.37687653 53.2057193 10.73591614 53.48274231 C6.91844279 55.1457321 3.24082738 56.93818006 -0.4921875 58.8046875 C-0.4921875 72.9946875 -0.4921875 87.1846875 -0.4921875 101.8046875 C0.1678125 101.8046875 0.8278125 101.8046875 1.5078125 101.8046875 C1.5078125 101.1446875 1.5078125 100.4846875 1.5078125 99.8046875 C2.23742187 99.8459375 2.96703125 99.8871875 3.71875 99.9296875 C6.76418572 99.79319738 8.41648196 99.1495808 11.1328125 97.8046875 C19.47423238 93.87931344 28.01136164 90.3821405 36.5078125 86.8046875 C36.5078125 72.2846875 36.5078125 57.7646875 36.5078125 42.8046875 C34.03404715 42.8046875 31.33128189 44.55460816 29.05859375 45.54296875 Z " fill="#ffff00" transform="translate(87.4921875,17.1953125)"/>
<path d="M0 0 C1.5787793 0.67796631 1.5787793 0.67796631 3.18945312 1.36962891 C5.34246524 2.29425329 7.49352019 3.22344851 9.64257812 4.15722656 C12.50817457 5.39550284 15.38266796 6.60749168 18.265625 7.8046875 C19.11092773 8.15595703 19.95623047 8.50722656 20.82714844 8.86914062 C22.38743562 9.51690193 23.94796381 10.16408315 25.50878906 10.81054688 C29.7370748 12.58338883 33.84754753 14.49923105 37.92041016 16.60595703 C39.78964281 17.51937176 41.68266893 18.25709454 43.625 19 C47.09144893 20.66389549 47.51797846 21.02222209 48.75 24.5 C49.02415466 27.56687927 49.02415466 27.56687927 49.05639648 31.20874023 C49.06472 31.87428925 49.07304352 32.53983826 49.08161926 33.22555542 C49.10566365 35.41996146 49.11448359 37.61407007 49.12109375 39.80859375 C49.13006313 41.3378966 49.13918503 42.86719856 49.14845276 44.39649963 C49.16492931 47.60004812 49.17264063 50.80349225 49.17553711 54.00708008 C49.18092494 58.10752149 49.21862567 62.20697964 49.26428127 66.30714321 C49.29405341 69.46506823 49.30126065 72.62275625 49.30226326 75.7808094 C49.30646399 77.29228286 49.31889265 78.80375713 49.33978081 80.31509209 C49.36670673 82.43141549 49.36186993 84.54545676 49.34936523 86.66186523 C49.35443588 87.86447495 49.35950653 89.06708466 49.36473083 90.30613708 C48.56543735 94.45890392 46.99865888 95.87160044 43.75 98.5 C41.63499451 99.75097656 41.63499451 99.75097656 39.51733398 100.640625 C38.71557236 100.98448242 37.91381073 101.32833984 37.0877533 101.68261719 C36.23250565 102.03485352 35.377258 102.38708984 34.49609375 102.75 C33.59939468 103.1305957 32.70269562 103.51119141 31.77882385 103.90332031 C28.91972715 105.11367626 26.0538843 106.30702046 23.1875 107.5 C21.28794295 108.30097314 19.38884938 109.10304641 17.49023438 109.90625 C13.85371674 111.44309156 10.21211848 112.96675574 6.56591797 114.48046875 C3.6971078 115.67417281 0.8458427 116.89226144 -1.98388672 118.17578125 C-8.89483388 121.26131653 -13.93211272 123.00988856 -21.24658203 120.45214844 C-24.81021765 119.01270099 -28.31378701 117.46326118 -31.8125 115.875 C-33.70321976 115.03562012 -35.59605161 114.20113094 -37.48895264 113.36668396 C-39.32135457 112.55802373 -41.15166608 111.74463195 -42.98193359 110.93115234 C-46.82950083 109.24622487 -50.70602165 107.69798268 -54.625 106.1875 C-74.928059 98.165662 -74.928059 98.165662 -78.25 92.5 C-78.63768005 89.51577759 -78.63768005 89.51577759 -78.65405273 85.99072266 C-78.66091599 85.34628708 -78.66777924 84.7018515 -78.67485046 84.03788757 C-78.6931123 81.91305337 -78.68928155 79.78895816 -78.68359375 77.6640625 C-78.68815662 76.18199423 -78.69346251 74.69992808 -78.69947815 73.21786499 C-78.70840855 70.11260379 -78.70598799 67.00759976 -78.69604492 63.90234375 C-78.68456824 59.93212153 -78.70474599 55.96279047 -78.73396206 51.99268532 C-78.7523536 48.93163454 -78.75202558 45.87079602 -78.74632454 42.80970383 C-78.74617161 41.34653856 -78.75219225 39.88335865 -78.76461601 38.42024612 C-78.77957762 36.36896011 -78.76881365 34.31930317 -78.75170898 32.26806641 C-78.75154282 31.10320709 -78.75137665 29.93834778 -78.75120544 28.7381897 C-78.13874664 24.78121397 -76.73045864 22.60876262 -74.25 19.5 C-71.65844727 18.00708008 -71.65844727 18.00708008 -68.75390625 16.95703125 C-67.69059082 16.55307129 -66.62727539 16.14911133 -65.53173828 15.73291016 C-64.44876465 15.3260498 -63.36579102 14.91918945 -62.25 14.5 C-60.25272609 13.64365545 -58.26166045 12.77267377 -56.27734375 11.88671875 C-55.28460449 11.44690674 -54.29186523 11.00709473 -53.26904297 10.55395508 C-52.25213379 10.1030249 -51.23522461 9.65209473 -50.1875 9.1875 C-46.91881878 7.74940751 -43.64915068 6.31357619 -40.37939453 4.87792969 C-38.37336255 3.99463709 -36.36897144 3.10760286 -34.36669922 2.21582031 C-31.79112992 1.06957846 -29.20916101 -0.06079235 -26.625 -1.1875 C-25.87468506 -1.52628174 -25.12437012 -1.86506348 -24.35131836 -2.21411133 C-15.09829679 -6.20261007 -8.87837616 -3.91152168 0 0 Z M-21.8359375 15.8359375 C-23.47949219 16.56683594 -23.47949219 16.56683594 -25.15625 17.3125 C-26.3009375 17.828125 -27.445625 18.34375 -28.625 18.875 C-30.88252232 19.88346235 -33.14032472 20.891298 -35.3984375 21.8984375 C-36.40052246 22.34880371 -37.40260742 22.79916992 -38.43505859 23.26318359 C-41.02052188 24.39917293 -43.62132451 25.46861623 -46.25 26.5 C-43.08310865 30.14926553 -39.27154527 31.32394649 -34.82421875 32.9765625 C-32.07667352 34.14764735 -30.16407747 35.17832836 -27.76953125 36.8359375 C-23.36550742 39.60818007 -19.54824455 41.50088025 -14.25 41.5 C-3.53022866 38.85018444 7.17152348 33.95441024 16.75 28.5 C17.08 27.84 17.41 27.18 17.75 26.5 C14.1390235 24.96941362 10.527768 23.43948757 6.91625977 21.91015625 C5.0879074 21.13576125 3.25977245 20.36085298 1.43164062 19.5859375 C0.27470703 19.09609375 -0.88222656 18.60625 -2.07421875 18.1015625 C-3.13729248 17.65119629 -4.20036621 17.20083008 -5.2956543 16.73681641 C-6.27058838 16.32866699 -7.24552246 15.92051758 -8.25 15.5 C-9.14050049 15.11634277 -10.03100098 14.73268555 -10.94848633 14.33740234 C-15.27804801 12.76209773 -17.80605277 14.02979577 -21.8359375 15.8359375 Z M-60.25 40.5 C-61.7112027 41.73233585 -61.7112027 41.73233585 -61.36352539 45.46899414 C-61.3633662 47.24105607 -61.35766785 49.0131226 -61.34765625 50.78515625 C-61.3462413 51.71597519 -61.34482635 52.64679413 -61.34336853 53.6058197 C-61.33775172 56.59141191 -61.3251964 59.57693029 -61.3125 62.5625 C-61.30748716 64.58137913 -61.30292388 66.60025943 -61.29882812 68.61914062 C-61.28777683 73.57945572 -61.27050095 78.53971532 -61.25 83.5 C-53.57144133 87.48702811 -45.72240183 90.9578208 -37.75 94.3125 C-36.57179688 94.81458984 -35.39359375 95.31667969 -34.1796875 95.83398438 C-33.05820312 96.30771484 -31.93671875 96.78144531 -30.78125 97.26953125 C-29.25854492 97.91305542 -29.25854492 97.91305542 -27.70507812 98.56958008 C-25.37587803 99.61812744 -25.37587803 99.61812744 -23.25 99.5 C-23.25 85.31 -23.25 71.12 -23.25 56.5 C-32.2068541 52.32013476 -41.03777892 48.23388145 -50.1875 44.5625 C-51.16912109 44.16482422 -52.15074219 43.76714844 -53.16210938 43.35742188 C-55.52333912 42.40141178 -57.88592079 41.44893628 -60.25 40.5 Z M19.15112305 45.40722656 C17.22120393 46.23553451 15.28942392 47.05937683 13.35742188 47.8828125 C2.88484624 51.622287 2.88484624 51.622287 -6.25 57.5 C-6.33874135 60.60251201 -6.36518455 63.6826812 -6.34765625 66.78515625 C-6.3462413 67.71597519 -6.34482635 68.64679413 -6.34336853 69.6058197 C-6.33775172 72.59141191 -6.3251964 75.57693029 -6.3125 78.5625 C-6.30748716 80.58137913 -6.30292388 82.60025943 -6.29882812 84.61914062 C-6.28777683 89.57945572 -6.27050095 94.53971532 -6.25 99.5 C-1.97847199 98.8372115 1.76410202 97.35664849 5.6953125 95.62890625 C6.67284988 95.20532082 6.67284988 95.20532082 7.6701355 94.7731781 C9.04104004 94.17787341 10.41090801 93.58017654 11.77978516 92.98022461 C13.87276131 92.06348057 15.96926058 91.155206 18.06640625 90.24804688 C25.11988595 87.27762495 25.11988595 87.27762495 31.75 83.5 C32.18610159 81.56827828 32.18610159 81.56827828 32.09057617 79.32568359 C32.09034958 78.46494232 32.09012299 77.60420105 32.08988953 76.71737671 C32.07440567 75.78712677 32.05892181 74.85687683 32.04296875 73.8984375 C32.03660149 72.47103745 32.03660149 72.47103745 32.03010559 71.01480103 C32.01327896 67.96791586 31.97561954 64.92168609 31.9375 61.875 C31.92245831 59.81250954 31.90876901 57.75000873 31.89648438 55.6875 C31.86336239 50.6247465 31.81155284 45.56248446 31.75 40.5 C27.77953003 40.5 22.86390518 43.81251197 19.15112305 45.40722656 Z " fill="#ffff00" transform="translate(436.25,19.5)"/>
<path d="M0 0 C1.06702148 0.45729492 2.13404297 0.91458984 3.23339844 1.38574219 C4.35649414 1.87461914 5.47958984 2.36349609 6.63671875 2.8671875 C8.98143299 3.87578576 11.32648542 4.88359817 13.671875 5.890625 C15.38141357 6.62684082 15.38141357 6.62684082 17.12548828 7.37792969 C20.57186097 8.84780685 24.03612207 10.26488472 27.51220703 11.66259766 C49.95813095 20.6930558 49.95813095 20.6930558 53.32421875 25.7421875 C53.59164429 28.68881226 53.59164429 28.68881226 53.61474609 32.33740234 C53.62146332 33.00280533 53.62818054 33.66820831 53.63510132 34.35377502 C53.65409988 36.55363431 53.65800648 38.75318878 53.66015625 40.953125 C53.66658326 42.48385748 53.67331155 44.01458872 53.68032837 45.5453186 C53.69230601 48.75485074 53.69600874 51.96427521 53.69482422 55.17382812 C53.69462108 59.28201032 53.721915 63.38950033 53.75636864 67.49751854 C53.77863243 70.65973059 53.78266192 73.82177598 53.78160477 76.98405838 C53.78396184 78.49830128 53.79279143 80.0125487 53.8082695 81.52671432 C53.82791903 83.64769343 53.82209733 85.76717922 53.81005859 87.88818359 C53.81290863 89.09380951 53.81575867 90.29943542 53.81869507 91.54159546 C53.22525432 95.38275359 52.03050887 97.00254345 49.32421875 99.7421875 C46.52880859 101.32861328 46.52880859 101.32861328 43.28515625 102.6875 C42.07690186 103.20231934 40.86864746 103.71713867 39.6237793 104.24755859 C38.31587739 104.78812484 37.00768366 105.32798548 35.69921875 105.8671875 C34.35478452 106.43075468 33.01079496 106.99538373 31.66723633 107.56103516 C29.60368486 108.42903001 27.53954005 109.29536821 25.47279358 110.1557312 C20.90721508 112.05898085 16.38529476 114.03937875 11.875 116.0703125 C10.13694092 116.84157471 10.13694092 116.84157471 8.36376953 117.62841797 C6.1824288 118.59723194 4.00719169 119.57994716 1.83935547 120.57861328 C-6.0119602 124.00837839 -10.7794705 124.54883743 -18.81469727 121.58398438 C-22.51536602 120.06761783 -26.15841313 118.45449843 -29.80078125 116.8046875 C-31.12563663 116.21444653 -32.45100132 115.62534752 -33.77685547 115.03735352 C-35.78983999 114.14399251 -37.80218756 113.24937045 -39.81228638 112.34953308 C-44.05922308 110.44918714 -48.32531801 108.6034472 -52.61328125 106.796875 C-54.18891846 106.12966431 -54.18891846 106.12966431 -55.79638672 105.44897461 C-57.75108679 104.6231591 -59.70833117 103.80333166 -61.66845703 102.99047852 C-66.79754956 100.80063015 -71.06508599 98.96357802 -73.67578125 93.7421875 C-73.78278691 91.67549242 -73.82465861 89.60531578 -73.83691406 87.53588867 C-73.84652161 86.23080856 -73.85612915 84.92572845 -73.86602783 83.58110046 C-73.87087606 82.14912083 -73.87515483 80.71713918 -73.87890625 79.28515625 C-73.88465819 77.82025653 -73.89041592 76.35535683 -73.8961792 74.89045715 C-73.90669096 71.8162094 -73.91253219 68.74198781 -73.91601562 65.66772461 C-73.92149504 61.73340261 -73.94551014 57.79942764 -73.97398758 53.86521435 C-73.99263793 50.83770244 -73.99782087 47.81027362 -73.9993515 44.78270912 C-74.00237412 43.33266621 -74.01038951 41.88262463 -74.02353668 40.43263817 C-74.04064224 38.40071869 -74.0368656 36.36865611 -74.03222656 34.33666992 C-74.03587219 33.18132248 -74.03951782 32.02597504 -74.04327393 30.83561707 C-73.63310072 27.38291715 -72.7222042 25.5244993 -70.67578125 22.7421875 C-66.21430789 19.40666472 -60.72202221 17.5195646 -55.61328125 15.3671875 C-54.66517578 14.96435547 -53.71707031 14.56152344 -52.74023438 14.14648438 C-47.16600837 11.78154545 -41.58562704 9.43142882 -35.98046875 7.140625 C-33.13147255 5.93502141 -30.31437826 4.68126 -27.49609375 3.40625 C-26.56023437 2.98923828 -25.624375 2.57222656 -24.66015625 2.14257812 C-22.78741486 1.30726383 -20.91993943 0.46001774 -19.05859375 -0.40039062 C-17.75921875 -0.97563477 -17.75921875 -0.97563477 -16.43359375 -1.5625 C-15.66160645 -1.91296387 -14.88961914 -2.26342773 -14.09423828 -2.62451172 C-9.05087168 -3.94517525 -4.61823068 -1.999 0 0 Z M-18.58984375 18.078125 C-19.68039062 18.56539063 -20.7709375 19.05265625 -21.89453125 19.5546875 C-23.01859375 20.0703125 -24.14265625 20.5859375 -25.30078125 21.1171875 C-26.43257813 21.62507813 -27.564375 22.13296875 -28.73046875 22.65625 C-33.08204617 24.61549102 -37.42118237 26.57893903 -41.67578125 28.7421875 C-36.65237127 32.82999676 -30.70986812 34.96710229 -24.80078125 37.4921875 C-23.62902344 38.01167969 -22.45726562 38.53117187 -21.25 39.06640625 C-20.11433594 39.55238281 -18.97867188 40.03835938 -17.80859375 40.5390625 C-16.26002686 41.20953613 -16.26002686 41.20953613 -14.68017578 41.89355469 C-9.0827975 43.47461164 -4.65805439 41.50595218 0.52734375 39.30859375 C1.67203125 38.82455078 2.81671875 38.34050781 3.99609375 37.84179688 C5.176875 37.33455078 6.35765625 36.82730469 7.57421875 36.3046875 C9.36859375 35.54961914 9.36859375 35.54961914 11.19921875 34.77929688 C17.21490131 32.46445826 17.21490131 32.46445826 22.32421875 28.7421875 C21.5878418 28.41943848 20.85146484 28.09668945 20.09277344 27.76416016 C16.7527903 26.29956017 13.41349809 24.83339138 10.07421875 23.3671875 C8.91535156 22.85929687 7.75648438 22.35140625 6.5625 21.828125 C5.44746094 21.33828125 4.33242188 20.8484375 3.18359375 20.34375 C2.15717773 19.89338379 1.13076172 19.44301758 0.07324219 18.97900391 C-2.67578125 17.7421875 -2.67578125 17.7421875 -4.66699219 16.57958984 C-9.66711157 14.49519394 -13.87989723 15.94727072 -18.58984375 18.078125 Z M-56.67578125 42.7421875 C-56.70048174 48.52628263 -56.71864148 54.31034712 -56.73071289 60.09448242 C-56.73574475 62.06258682 -56.74257083 64.03068747 -56.7512207 65.9987793 C-56.76333642 68.82601851 -56.76902101 71.65320834 -56.7734375 74.48046875 C-56.77859879 75.36180984 -56.78376007 76.24315094 -56.78907776 77.15119934 C-56.78915329 77.97182358 -56.78922882 78.79244781 -56.78930664 79.63793945 C-56.79152725 80.35963821 -56.79374786 81.08133698 -56.79603577 81.8249054 C-56.74403724 83.96445551 -56.74403724 83.96445551 -55.67578125 86.7421875 C-53.1031303 88.01390598 -53.1031303 88.01390598 -49.92578125 89.0546875 C-44.15896993 91.14941546 -38.65754077 93.54323953 -33.13671875 96.21484375 C-28.41558198 98.2983251 -23.52551844 99.9786467 -18.67578125 101.7421875 C-18.67578125 87.5521875 -18.67578125 73.3621875 -18.67578125 58.7421875 C-27.25081682 54.45466971 -35.57442536 50.35882831 -44.42578125 46.8046875 C-45.87984375 46.20817383 -45.87984375 46.20817383 -47.36328125 45.59960938 C-51.88186388 43.54728824 -51.88186388 43.54728824 -56.67578125 42.7421875 Z M28.25 45.26171875 C27.64794235 45.52095627 27.0458847 45.78019379 26.42558289 46.04728699 C24.49448033 46.87970371 22.56558584 47.71710564 20.63671875 48.5546875 C19.35626354 49.1077548 18.07566611 49.66049295 16.79492188 50.21289062 C14.41487186 51.2398989 12.03586103 52.26919133 9.6574707 53.30004883 C7.90663884 54.05755002 6.15346423 54.81067667 4.38290405 55.52084351 C0.66990986 56.81371136 0.66990986 56.81371136 -1.67578125 59.7421875 C-1.76480618 61.10063943 -1.79338257 62.46334724 -1.78930664 63.82470703 C-1.78923111 64.66542755 -1.78915558 65.50614807 -1.78907776 66.37234497 C-1.78391647 67.28072113 -1.77875519 68.18909729 -1.7734375 69.125 C-1.77202255 70.05440399 -1.7706076 70.98380798 -1.76914978 71.94137573 C-1.76354178 74.91667874 -1.75098793 77.89190714 -1.73828125 80.8671875 C-1.73326728 82.88150933 -1.7287042 84.89583234 -1.72460938 86.91015625 C-1.71356975 91.85419552 -1.69629974 96.79817885 -1.67578125 101.7421875 C3.32762558 100.12402528 8.242903 98.45786486 13.05859375 96.33203125 C14.04472656 95.89955078 15.03085937 95.46707031 16.046875 95.02148438 C17.54541016 94.35729492 17.54541016 94.35729492 19.07421875 93.6796875 C21.08957842 92.79236587 23.10519447 91.90562627 25.12109375 91.01953125 C26.00120117 90.63015381 26.88130859 90.24077637 27.78808594 89.83959961 C29.53343955 89.08436621 31.30231908 88.38201216 33.08691406 87.72485352 C35.48329978 86.95658896 35.48329978 86.95658896 36.32421875 84.7421875 C36.41324368 83.38373557 36.44182007 82.02102776 36.43774414 80.65966797 C36.43766861 79.81894745 36.43759308 78.97822693 36.43751526 78.11203003 C36.43235397 77.20365387 36.42719269 76.29527771 36.421875 75.359375 C36.42046005 74.42997101 36.4190451 73.50056702 36.41758728 72.54299927 C36.41197928 69.56769626 36.39942543 66.59246786 36.38671875 63.6171875 C36.38170478 61.60286567 36.3771417 59.58854266 36.37304688 57.57421875 C36.36200725 52.63017948 36.34473724 47.68619615 36.32421875 42.7421875 C33.29867327 42.7421875 31.01878973 44.06397826 28.25 45.26171875 Z " fill="#ffff00" transform="translate(431.67578125,361.2578125)"/>
<path d="M0 0 C7.68967092 0.26543027 13.52281005 2.65151164 20.4375 5.875 C22.63841726 6.87439272 24.84027328 7.87172013 27.04296875 8.8671875 C28.17782715 9.38249023 29.31268555 9.89779297 30.48193359 10.42871094 C37.45924647 13.54501806 44.52527421 16.45555493 51.58374023 19.38232422 C52.61313721 19.81303223 53.64253418 20.24374023 54.703125 20.6875 C55.60708008 21.06261719 56.51103516 21.43773437 57.44238281 21.82421875 C63.08742241 24.41934195 65.56499355 26.11787181 68 32 C68.34971619 35.2381897 68.34971619 35.2381897 68.31225586 38.76806641 C68.30936554 39.41600662 68.30647522 40.06394684 68.30349731 40.73152161 C68.28961219 42.8553486 68.25321096 44.97804697 68.21484375 47.1015625 C68.19694028 48.58555193 68.1798272 50.06955109 68.16346741 51.55355835 C68.12554305 54.65542015 68.07608189 57.75683592 68.01879883 60.85839844 C67.94664864 64.83063343 67.90639729 68.80246089 67.87511349 72.7752018 C67.84697708 75.83637922 67.80044093 78.89706982 67.74850655 81.9579277 C67.72615672 83.42265273 67.7098744 84.88748354 67.69981194 86.35234451 C67.68329733 88.39931 67.64163617 90.44428909 67.59350586 92.49072266 C67.5755748 93.65399078 67.55764374 94.81725891 67.53916931 96.01577759 C66.8890004 99.6143664 65.82799386 100.75823691 63 103 C60.52758789 104.36523438 60.52758789 104.36523438 57.72265625 105.59375 C56.66522217 106.06135742 55.60778809 106.52896484 54.51831055 107.01074219 C53.37789307 107.50219727 52.23747559 107.99365234 51.0625 108.5 C49.88276611 109.0146582 48.70303223 109.52931641 47.48754883 110.05957031 C44.32250907 111.436585 41.15090004 112.79776987 37.97692871 114.15405273 C35.979537 115.00875632 33.98424216 115.86820967 31.98925781 116.72851562 C28.69653282 118.14642041 25.3981406 119.55028306 22.09494019 120.94360352 C20.83097275 121.47796307 19.56835398 122.01552486 18.30715942 122.55639648 C16.5361315 123.31391571 14.75840159 124.05570694 12.98046875 124.796875 C11.46296021 125.43641113 11.46296021 125.43641113 9.91479492 126.08886719 C2.85240093 128.29649382 -1.97009804 126.07491461 -8.421875 123.203125 C-9.32190247 122.81308289 -10.22192993 122.42304077 -11.14923096 122.0211792 C-14.02072068 120.77430806 -16.88541914 119.51265173 -19.75 118.25 C-22.60165215 117.00493967 -25.45462133 115.76294379 -28.30792236 114.52166748 C-30.07901281 113.74988645 -31.84891567 112.97537184 -33.61737061 112.1975708 C-38.64398383 109.99234455 -43.69867378 107.90503282 -48.82061768 105.93035889 C-52.75262348 104.25182066 -55.96876788 102.03123212 -59 99 C-59.25396729 96.12893677 -59.25396729 96.12893677 -59.25878906 92.41064453 C-59.2622937 91.73402771 -59.26579834 91.05741089 -59.26940918 90.36029053 C-59.27823018 88.11769426 -59.27237491 85.87541214 -59.265625 83.6328125 C-59.26697186 82.07583556 -59.26891257 80.51885904 -59.27142334 78.96188354 C-59.27437535 75.69508875 -59.2700757 72.4284032 -59.26074219 69.16162109 C-59.24936644 64.97615895 -59.25589461 60.79095382 -59.26788712 56.60550117 C-59.2751198 53.38843862 -59.27281099 50.17143681 -59.26763153 46.95437241 C-59.26629795 45.41141606 -59.26793256 43.86845419 -59.27259064 42.3255043 C-59.27767696 40.16623627 -59.26991553 38.00738182 -59.25878906 35.84814453 C-59.25719788 34.61951691 -59.25560669 33.39088928 -59.25396729 32.12503052 C-59.01144023 29.14077031 -58.64101567 27.46852754 -57 25 C-55.32348633 23.95092773 -55.32348633 23.95092773 -53.33203125 23.18359375 C-52.60306641 22.89419922 -51.87410156 22.60480469 -51.12304688 22.30664062 C-49.97932617 21.87641602 -49.97932617 21.87641602 -48.8125 21.4375 C-47.31885712 20.85325634 -45.82536585 20.26862492 -44.33203125 19.68359375 C-43.6045166 19.40499512 -42.87700195 19.12639648 -42.12744141 18.83935547 C-40.10290856 18.04060129 -38.12236099 17.17537976 -36.13671875 16.28515625 C-33 15 -33 15 -30 15 C-30 14.34 -30 13.68 -30 13 C-29.2471875 12.72027344 -28.494375 12.44054687 -27.71875 12.15234375 C-21.15463379 9.67486785 -14.679781 7.05613184 -8.25 4.25 C-7.54681641 3.94441162 -6.84363281 3.63882324 -6.11914062 3.32397461 C-2.82475349 2.03374823 -2.82475349 2.03374823 0 0 Z M-6 22.125 C-7.31282635 22.76632416 -8.62665645 23.40559707 -9.94140625 24.04296875 C-10.6080127 24.3682959 -11.27461914 24.69362305 -11.96142578 25.02880859 C-15.24613419 26.59366728 -18.58728106 28.0196333 -21.9375 29.4375 C-23.10152344 29.93121094 -24.26554687 30.42492187 -25.46484375 30.93359375 C-26.30144531 31.28550781 -27.13804688 31.63742187 -28 32 C-24.30326156 35.69673844 -18.97539428 37.27445669 -14.21582031 39.33276367 C-12.26491248 40.18101607 -10.32416228 41.05006111 -8.3828125 41.91992188 C-7.1359885 42.46225405 -5.88860907 43.00331141 -4.640625 43.54296875 C-3.51172852 44.03821045 -2.38283203 44.53345215 -1.21972656 45.04370117 C4.52121783 46.74883305 8.86131797 44.83004434 14.203125 42.56640625 C15.3478125 42.08236328 16.4925 41.59832031 17.671875 41.09960938 C18.85265625 40.59236328 20.0334375 40.08511719 21.25 39.5625 C23.044375 38.80743164 23.044375 38.80743164 24.875 38.03710938 C30.89068256 35.72227076 30.89068256 35.72227076 36 32 C31.98636724 30.13404633 27.96620002 28.28322039 23.93945312 26.44580078 C22.57202365 25.81933179 21.20642703 25.1888453 19.84277344 24.55419922 C17.87649083 23.63994957 15.90395769 22.74059634 13.9296875 21.84375 C12.74616699 21.29912109 11.56264648 20.75449219 10.34326172 20.19335938 C3.98644008 17.92432592 -0.18599084 19.16845075 -6 22.125 Z M-42 46 C-42 60.19 -42 74.38 -42 89 C-36.80916262 91.59541869 -31.98603134 93.87424593 -26.625 95.9375 C-21.29296221 98.01328584 -16.18639272 100.28842921 -11.1484375 103.01953125 C-8.61282244 104.27563852 -8.61282244 104.27563852 -4 105 C-4 90.81 -4 76.62 -4 62 C-11.78597975 58.10701013 -19.49642703 54.55529559 -27.5 51.1875 C-28.67820312 50.68541016 -29.85640625 50.18332031 -31.0703125 49.66601562 C-32.19179688 49.19228516 -33.31328125 48.71855469 -34.46875 48.23046875 C-35.48388672 47.80145264 -36.49902344 47.37243652 -37.54492188 46.93041992 C-39.87412197 45.88187256 -39.87412197 45.88187256 -42 46 Z M42.8046875 48.51953125 C42.17901886 48.77876877 41.55335022 49.03800629 40.90872192 49.30509949 C38.89679499 50.13925627 36.88591241 50.97590087 34.875 51.8125 C33.54172973 52.36538647 32.20839713 52.91812266 30.875 53.47070312 C24.90230859 55.94858107 18.94370935 58.45269599 13 61 C13 75.52 13 90.04 13 105 C21.51044904 101.72675037 29.90768427 98.40181318 38.25 94.75 C39.27996094 94.30398438 40.30992188 93.85796875 41.37109375 93.3984375 C45.99513019 91.6914124 45.99513019 91.6914124 50 89 C50.09268999 87.64905018 50.11747326 86.29332909 50.11352539 84.93920898 C50.11344986 84.07839218 50.11337433 83.21757538 50.11329651 82.33067322 C50.10555458 80.92755638 50.10555458 80.92755638 50.09765625 79.49609375 C50.09553383 78.06657127 50.09553383 78.06657127 50.09336853 76.60816956 C50.08775152 73.55124835 50.07519616 70.49439923 50.0625 67.4375 C50.05748719 65.37044376 50.05292391 63.30338638 50.04882812 61.23632812 C50.03777656 56.15752412 50.02050055 51.0787743 50 46 C47.64390415 46 44.90353807 47.64832395 42.8046875 48.51953125 Z " fill="#ffff00" transform="translate(74,358)"/>
<path d="M0 0 C2.8125 1.3125 2.8125 1.3125 5 4 C5.71695901 7.6638714 5.92929633 11.2719882 6 15 C7.32451172 14.94779297 7.32451172 14.94779297 8.67578125 14.89453125 C20.95711806 14.61750862 30.27697179 16.22894336 40 24 C40.639375 24.50273437 41.27875 25.00546875 41.9375 25.5234375 C48.36779325 31.20537766 51.70287132 38.62820788 52.48046875 47.1328125 C53.04554065 58.16599659 50.9483048 67.59222325 43.6875 76.25 C42.3571875 77.61125 42.3571875 77.61125 41 79 C41.45890625 79.53367187 41.9178125 80.06734375 42.390625 80.6171875 C50.86283673 90.90487318 53.18386817 99.93983355 52.21435547 113.06298828 C51.19204769 122.30101784 45.7327389 128.92542948 39 135 C36.12186767 137.02131991 33.24199313 138.64209712 30 140 C29.12472656 140.36867188 28.24945313 140.73734375 27.34765625 141.1171875 C22.8839751 142.29430762 18.71686234 142.21490092 14.125 142.125 C13.24585938 142.11597656 12.36671875 142.10695313 11.4609375 142.09765625 C9.3071729 142.07424577 7.15354986 142.0383801 5 142 C5.12894653 142.92341187 5.12894653 142.92341187 5.26049805 143.86547852 C5.41578979 145.07868774 5.41578979 145.07868774 5.57421875 146.31640625 C5.68080811 147.11763916 5.78739746 147.91887207 5.8972168 148.74438477 C6.04485424 151.98434284 5.11355025 153.59492558 3 156 C0.26652449 158.14773076 -1.02535374 157.99822079 -4.5625 157.75 C-8 157 -8 157 -11 155 C-11.29296875 151.9609375 -11.29296875 151.9609375 -11.1875 148.375 C-11.14689453 146.59222656 -11.14689453 146.59222656 -11.10546875 144.7734375 C-11.07066406 143.85820312 -11.03585938 142.94296875 -11 142 C-12.27641357 142.02618408 -13.55282715 142.05236816 -14.86791992 142.0793457 C-19.6107424 142.16995416 -24.35348862 142.22728827 -29.09692383 142.2746582 C-31.14848706 142.29977806 -33.19996101 142.33388036 -35.2512207 142.37719727 C-38.20286091 142.43796002 -41.1533165 142.46623492 -44.10546875 142.48828125 C-45.02023483 142.51408768 -45.93500092 142.5398941 -46.87748718 142.56648254 C-51.45042315 142.56848947 -53.36101486 142.49864586 -57.07470703 139.60058594 C-58.93150993 137.09251284 -59.70576808 136.00044769 -59.6875 132.9375 C-59 129 -59 129 -56.625 126.5 C-53 125 -53 125 -43 125 C-43.33 112.79 -43.66 100.58 -44 88 C-47.3 87.67 -50.6 87.34 -54 87 C-58 84 -58 84 -58.75 81.87890625 C-59.40499307 75.80998613 -59.40499307 75.80998613 -57.75 72.5 C-55 71 -55 71 -44 70 C-43.67 57.79 -43.34 45.58 -43 33 C-46.3 33 -49.6 33 -53 33 C-56.6416011 31.06772186 -57.68788043 29.97797465 -58.9375 26.0625 C-59.00728813 22.64288187 -58.80759004 20.90786224 -57 18 C-51.82963446 14.61705188 -47.59898202 14.66308113 -41.6640625 14.92578125 C-40.34503433 14.96544258 -40.34503433 14.96544258 -38.99935913 15.00590515 C-36.20718322 15.09325861 -33.41636822 15.20254867 -30.625 15.3125 C-28.72530826 15.37580147 -26.82556806 15.43766605 -24.92578125 15.49804688 C-20.28312815 15.64873333 -15.64156963 15.81908968 -11 16 C-11.02465332 15.1656543 -11.04930664 14.33130859 -11.07470703 13.47167969 C-11.09388184 12.38274414 -11.11305664 11.29380859 -11.1328125 10.171875 C-11.15746582 9.0900293 -11.18211914 8.00818359 -11.20751953 6.89355469 C-11 4 -11 4 -8.875 1.25 C-5.50783651 -0.21398412 -3.62984134 -0.60497356 0 0 Z M-26 33 C-26 45.54 -26 58.08 -26 71 C-19.89775074 71.09218673 -13.79794926 71.17171781 -7.69555664 71.21972656 C-5.62288189 71.23975397 -3.550263 71.26698411 -1.4777832 71.30175781 C1.51364996 71.350668 4.50433155 71.37305793 7.49609375 71.390625 C8.41208847 71.41127014 9.32808319 71.43191528 10.27183533 71.45318604 C17.94903923 71.4558211 23.86558399 69.5211607 29.875 64.6875 C34.37260808 58.99934861 35.6719548 54.05552537 35 47 C33.09517365 41.1664693 28.84338636 37.54465574 24 34 C21.12037166 33.04012389 19.33372559 32.87846186 16.3449707 32.88647461 C15.40422195 32.88655014 14.46347321 32.88662567 13.49421692 32.88670349 C11.97534126 32.89444542 11.97534126 32.89444542 10.42578125 32.90234375 C9.38681198 32.9037587 8.34784271 32.90517365 7.27738953 32.90663147 C3.95573052 32.91223344 0.63413867 32.92478628 -2.6875 32.9375 C-4.93815007 32.94251475 -7.18880119 32.9470777 -9.43945312 32.95117188 C-14.95968217 32.96135304 -20.47976582 32.98092817 -26 33 Z M-26 87 C-26 99.54 -26 112.08 -26 125 C-19.57666045 125.0690132 -13.15461658 125.12870562 -6.73120117 125.16479492 C-4.5478885 125.17984555 -2.36460589 125.20029074 -0.18139648 125.22631836 C2.96378006 125.26286518 6.10855549 125.27976398 9.25390625 125.29296875 C10.70900352 125.31619453 10.70900352 125.31619453 12.1934967 125.33988953 C18.68730282 125.34148819 23.77500086 124.7016727 28.92578125 120.38671875 C32.80308394 115.63565771 34.68664967 111.82015294 35.375 105.625 C34.78513741 99.92299492 32.73973826 95.73973826 28.6875 91.6875 C21.74681243 87.32939385 16.55012382 86.57512709 8.47265625 86.70703125 C7.48373886 86.71127609 6.49482147 86.71552094 5.47593689 86.71989441 C2.33783991 86.73659871 -0.79959928 86.77423585 -3.9375 86.8125 C-6.07355839 86.82755749 -8.20962691 86.84124403 -10.34570312 86.85351562 C-15.56425534 86.88391496 -20.78139709 86.94265272 -26 87 Z " fill="#ffff00" transform="translate(253,171)"/>
<path d="M0 0 C3.57152613 2.70277653 4.37623316 4.66487205 5 9 C5.09452433 11.36437845 5.13484346 13.73115157 5.14044189 16.09741211 C5.14341302 16.80052741 5.14638414 17.50364271 5.1494453 18.22806454 C5.15809865 20.57783644 5.15963766 22.92755719 5.16113281 25.27734375 C5.1657632 26.9645295 5.17078816 28.65171421 5.17617798 30.33889771 C5.18927876 34.91730333 5.19574187 39.49569432 5.20018864 44.07411575 C5.20312183 46.93441209 5.20722701 49.79470445 5.21169281 52.65499878 C5.2253588 61.60429268 5.23503105 70.55357744 5.2388947 79.50288105 C5.24337975 89.83435107 5.26095211 100.16568908 5.2898953 110.49711895 C5.31149575 118.4844957 5.32159803 126.47183526 5.32293582 134.45924091 C5.3239846 139.2297047 5.32990852 144.00004424 5.34775543 148.77047729 C5.36420883 153.25534449 5.36640497 157.73999363 5.35761642 162.22488022 C5.3568447 163.87082375 5.36120651 165.51677889 5.37107468 167.16269302 C5.38375644 169.40958547 5.37793864 171.65570106 5.36749268 173.90258789 C5.36895924 175.15987198 5.3704258 176.41715607 5.3719368 177.71253967 C4.85746625 182.25982166 3.19011102 184.80988898 0 188 C-3.57155093 189.03178138 -5.32635232 189.30620349 -8.75 187.75 C-11 186 -11 186 -13 183 C-13.25726891 179.86493111 -13.25726891 179.86493111 -13.26742554 175.91531372 C-13.27195665 175.18940596 -13.27648776 174.46349819 -13.28115618 173.71559322 C-13.2938437 171.27663986 -13.29217703 168.83790855 -13.29052734 166.39892578 C-13.29650989 164.65292065 -13.3033148 162.90691817 -13.31088257 161.16091919 C-13.32857782 156.41296456 -13.33323943 151.66508198 -13.33451414 146.91709757 C-13.33641144 142.95579733 -13.34376703 138.99451394 -13.35085833 135.03322017 C-13.36715334 125.68831651 -13.37202628 116.34345139 -13.37060547 106.99853516 C-13.36940378 97.35377445 -13.39050844 87.70923744 -13.4220928 78.06453335 C-13.44823099 69.788444 -13.4589738 61.51242781 -13.45769465 53.23629749 C-13.45718428 48.29139466 -13.46290846 43.34669054 -13.48405075 38.40182877 C-13.50339176 33.75113241 -13.50358605 29.10082515 -13.48901749 24.4501152 C-13.48692312 22.74289635 -13.49166755 21.03565341 -13.5037384 19.32847595 C-13.51914897 16.99807574 -13.5099119 14.66902421 -13.49447632 12.33865356 C-13.49556585 11.03452578 -13.49665539 9.73039799 -13.49777794 8.38675117 C-12.91503913 4.42194838 -11.84493791 2.77533653 -9 0 C-5.41563853 -1.19478716 -3.63093708 -0.96330984 0 0 Z " fill="#ffff00" transform="translate(426,156)"/>
<path d="M0 0 C1.09142492 -0.00935994 1.09142492 -0.00935994 2.20489883 -0.01890898 C4.63790747 -0.03483719 7.06991399 -0.02223615 9.50292969 -0.00964355 C11.24923283 -0.01506478 12.99553139 -0.02218744 14.74182129 -0.03088379 C19.48149324 -0.04912012 24.22081695 -0.04204834 28.960495 -0.02936745 C33.92028747 -0.0192414 38.8800501 -0.02863203 43.83984375 -0.03491211 C52.16899978 -0.04218966 60.49801395 -0.03259797 68.82714844 -0.0135498 C78.45720412 0.00821913 88.08692106 0.00116784 97.71696854 -0.02085543 C105.98462448 -0.03900634 114.25217844 -0.04156925 122.51984787 -0.03110075 C127.45799055 -0.02486413 132.39597399 -0.02403485 137.33410645 -0.0372467 C141.97665771 -0.04880008 146.61877218 -0.04078889 151.26127625 -0.01766968 C152.96525853 -0.01237984 154.66927757 -0.01390109 156.37324524 -0.02272034 C158.69919646 -0.03364904 161.02374743 -0.01994634 163.34960938 0 C165.3019046 0.00226215 165.3019046 0.00226215 167.29364014 0.00457001 C171.2341392 0.59120445 172.90004591 1.69925715 175.67480469 4.50793457 C176.54514385 7.57844788 176.29367505 10.39066161 175.67480469 13.50793457 C173.8140059 16.26467351 172.67524521 17.24208567 169.47344112 18.09290695 C166.14488972 18.58651903 162.95024334 18.64040418 159.5841217 18.64837646 C158.88171197 18.65134759 158.17930223 18.65431871 157.45560735 18.65737987 C155.10816942 18.66603323 152.76078268 18.66757223 150.41333008 18.66906738 C148.72776684 18.67369781 147.04220465 18.67872278 145.35664368 18.68411255 C140.78230301 18.69721392 136.207977 18.70367669 131.6336205 18.70812321 C128.77532648 18.71105663 125.91703644 18.71516187 123.05874443 18.71962738 C114.11425389 18.73329424 105.16977249 18.74296576 96.22527224 18.74682927 C85.90230223 18.75131293 75.57946444 18.76887851 65.25653464 18.79782987 C57.27423775 18.81943966 49.2919781 18.82953312 41.30965227 18.83087039 C36.54306892 18.83191861 31.77660999 18.83783039 27.01005745 18.85569 C22.52764945 18.87215929 18.04545961 18.87433177 13.56303215 18.86555099 C11.91912121 18.8647801 10.27519858 18.86913028 8.63131714 18.87900925 C6.38477544 18.89171717 4.13900783 18.8858589 1.89247131 18.87542725 C0.00792787 18.87762709 0.00792787 18.87762709 -1.91468716 18.87987137 C-5.69033715 18.46811362 -8.10210197 17.48859564 -11.32519531 15.50793457 C-13.13278535 12.60007233 -13.33248344 10.8650527 -13.26269531 7.44543457 C-11.1526085 0.83382924 -6.3529781 0.00736129 0 0 Z " fill="#ffff00" transform="translate(168.3251953125,412.4920654296875)"/>
<path d="M0 0 C2.48360937 2.40899855 2.97497435 3.78717215 3.38311005 7.25811672 C3.38683876 8.56056867 3.39056747 9.86302061 3.39440918 11.2049408 C3.40354584 12.29508408 3.40354584 12.29508408 3.41286707 13.40725046 C3.4295199 15.84319223 3.42471816 18.27861257 3.41992188 20.71459961 C3.42726088 22.46075484 3.43584661 24.20690522 3.44558716 25.95304871 C3.46782914 30.69684079 3.47073252 35.4404593 3.46883965 40.18429637 C3.46872007 44.14316943 3.47727871 48.10200553 3.48561716 52.06086832 C3.50486071 61.39957198 3.5077315 70.73818624 3.50097656 80.0769043 C3.4943339 89.71436133 3.51720701 99.35143581 3.55429029 108.98881525 C3.58496564 117.26069026 3.59634971 125.53244207 3.59245348 133.80437285 C3.59038383 138.74594455 3.59589854 143.68721858 3.62034607 148.6287365 C3.6425751 153.27542384 3.64076761 157.92148823 3.62041855 162.56817818 C3.61700172 164.27378445 3.62212653 165.97943235 3.63640213 167.6849823 C3.65454692 170.01340972 3.64188429 172.33971299 3.62145996 174.66807556 C3.62217247 175.97090453 3.62288498 177.2737335 3.62361908 178.61604214 C2.8415631 182.85972964 1.31899126 184.33552251 -2 187 C-5.02648335 187.90738141 -6.7496807 187.46433133 -10 187 C-12.96858157 184.79259319 -13.82865791 183.51402627 -15 180 C-15.09881789 177.67803202 -15.13504615 175.35326882 -15.14044189 173.02920532 C-15.14341302 172.31554821 -15.14638414 171.60189111 -15.1494453 170.86660802 C-15.15813458 168.46916568 -15.15964073 166.07177326 -15.16113281 163.67431641 C-15.16576078 161.9578694 -15.17078541 160.24142342 -15.17617798 158.52497864 C-15.189305 153.85761444 -15.19574739 149.19026462 -15.20018864 144.52288485 C-15.20311854 141.60799115 -15.20722316 138.6931014 -15.21169281 135.77820969 C-15.22536779 126.66125304 -15.23503476 117.54430539 -15.2388947 108.4273392 C-15.24337728 97.89718836 -15.26093444 87.3671672 -15.2898953 76.8370558 C-15.31149624 68.70110069 -15.32159811 60.56518211 -15.32293582 52.42919862 C-15.32398488 47.56816206 -15.32991421 42.70724741 -15.34775543 37.846241 C-15.36420895 33.27439932 -15.36640489 28.70277156 -15.35761642 24.13091087 C-15.35684462 22.452718 -15.36120761 20.77451376 -15.37107468 19.09634972 C-15.38375418 16.80556454 -15.37793971 14.5155416 -15.36749268 12.22476196 C-15.36895924 10.94275721 -15.3704258 9.66075245 -15.3719368 8.33989906 C-14.97085732 4.73830602 -14.17062529 2.86923649 -12 0 C-7.67308046 -2.76442082 -4.60968062 -1.87801803 0 0 Z " fill="#ffff00" transform="translate(84,157)"/>
<path d="M0 0 C0.71774066 -0.00297112 1.43548132 -0.00594224 2.1749717 -0.0090034 C4.58623351 -0.01769297 6.99744569 -0.01919886 9.40872192 -0.02069092 C11.13502102 -0.02531887 12.86131909 -0.03034349 14.58761597 -0.03573608 C19.28183882 -0.0488633 23.97604736 -0.05530553 28.6702857 -0.05974674 C31.60193036 -0.06267661 34.53357109 -0.06678123 37.46521378 -0.07125092 C46.63449615 -0.08492595 55.80376958 -0.09459289 64.97306144 -0.09845281 C75.5637725 -0.1029354 86.15435462 -0.12049262 96.74502647 -0.1494534 C104.92769031 -0.17105409 113.11031782 -0.1811562 121.29300988 -0.18249393 C126.18199182 -0.183543 131.07085256 -0.1894727 135.95980453 -0.20731354 C140.55791066 -0.22376662 145.1558041 -0.2259632 149.75392914 -0.21717453 C151.44179732 -0.2164027 153.12967681 -0.22076602 154.81751633 -0.23063278 C157.12143726 -0.24331154 159.42460022 -0.2374982 161.72851562 -0.22705078 C163.01789473 -0.22851734 164.30727383 -0.2299839 165.63572502 -0.2314949 C169.23773208 0.16776375 171.12564185 0.96325051 173.99124146 3.14044189 C175.58375789 6.32547476 175.38253906 9.6736824 174.99124146 13.14044189 C173.24870801 16.37657544 172.51938201 16.96439504 168.99124146 18.14044189 C166.64399353 18.24143726 164.29392596 18.27986588 161.94451904 18.28761292 C161.22269483 18.2912896 160.50087062 18.29496629 159.75717294 18.29875439 C157.33209617 18.30979068 154.90706224 18.31363494 152.48196411 18.31744385 C150.74581262 18.32370842 149.00966247 18.33035521 147.27351379 18.33735657 C142.55243657 18.35476391 137.83136947 18.3653171 133.11026812 18.3735621 C130.16187266 18.37871167 127.21348036 18.38478735 124.26508713 18.39107323 C115.04348148 18.41012256 105.82188383 18.42435557 96.60026228 18.4326852 C85.94895322 18.44246477 75.29785157 18.46880415 64.64661562 18.50918609 C56.41724392 18.53931774 48.1879318 18.55415117 39.95850599 18.55746621 C35.04153518 18.55981959 30.12478603 18.56881775 25.2078743 18.59392738 C20.58345955 18.61716229 15.95941315 18.62145989 11.33495522 18.611166 C9.63740503 18.61066945 7.93983699 18.61702492 6.242342 18.63072205 C3.92509458 18.64837451 1.60917874 18.6413689 -0.70806885 18.62818909 C-2.00482229 18.63057744 -3.30157574 18.63296579 -4.63762474 18.63542652 C-8.60145551 18.05341601 -10.24392589 16.99743964 -13.00875854 14.14044189 C-14.40192555 9.71508788 -14.40868288 7.91172453 -12.25875854 3.76544189 C-8.62347102 -0.47572689 -5.32228207 0.01228596 0 0 Z " fill="#ffff00" transform="translate(169.00875854492188,68.85955810546875)"/>
<path d="M0 0 C0.71985736 -0.00226556 1.43971472 -0.00453111 2.18138593 -0.00686532 C4.59965414 -0.01320844 7.01786635 -0.01237577 9.43614197 -0.0115509 C11.16730828 -0.01454213 12.89847392 -0.01794457 14.62963867 -0.02172852 C19.33606034 -0.03057465 24.04246384 -0.03290684 28.74889302 -0.0335443 C32.67319031 -0.03449269 36.59748335 -0.03817003 40.521779 -0.0417164 C49.77546207 -0.04986265 59.02913541 -0.05230041 68.28282166 -0.05158997 C77.84236656 -0.05098854 87.40185515 -0.06155287 96.96138579 -0.07733363 C105.15928923 -0.09038652 113.35717422 -0.09577484 121.55508798 -0.09513456 C126.45568122 -0.09487898 131.3562244 -0.09776295 136.25680733 -0.10831261 C140.86225815 -0.11795626 145.46761063 -0.11809861 150.0730648 -0.11079597 C151.76702645 -0.10974559 153.46099409 -0.11213971 155.15494537 -0.11815643 C157.45977847 -0.12581537 159.76426671 -0.12127261 162.0690918 -0.11352539 C163.36123628 -0.11407016 164.65338076 -0.11461493 165.98468113 -0.1151762 C168.97105408 0.13371277 168.97105408 0.13371277 170.97105408 2.13371277 C111.57105408 2.13371277 52.17105408 2.13371277 -9.02894592 2.13371277 C-9.35894592 3.12371277 -9.68894592 4.11371277 -10.02894592 5.13371277 C-10.68894592 5.13371277 -11.34894592 5.13371277 -12.02894592 5.13371277 C-11.21644592 3.19621277 -11.21644592 3.19621277 -10.02894592 1.13371277 C-6.50293317 -0.04162482 -3.72312796 0.00482729 0 0 Z " fill="#ffff00" transform="translate(169.02894592285156,68.86628723144531)"/>
<path d="M0 0 C-1.98 1.65 -3.96 3.3 -6 5 C-6 4.34 -6 3.68 -6 3 C-7.98 3.33 -9.96 3.66 -12 4 C-9.94577945 1.94577945 -8.66990976 1.31862408 -6 0.3125 C-5.29875 0.04050781 -4.5975 -0.23148437 -3.875 -0.51171875 C-2 -1 -2 -1 0 0 Z " fill="#ffff00" transform="translate(438,399)"/>
<path d="M0 0 C3.55780196 0.60990891 6.6828589 1.5783681 10 3 C8.25 4.125 8.25 4.125 6 5 C3.75 4.125 3.75 4.125 2 3 C2 2.34 2 1.68 2 1 C1.34 0.67 0.68 0.34 0 0 Z " fill="#ffff00" transform="translate(440,366)"/>
<path d="" fill="#ffff00" transform="translate(0,0)"/>
<path d="" fill="#ffff00" transform="translate(0,0)"/>
</svg>
